<?xml version="1.0" encoding="utf-8"?>
<!-- Generator: Adobe Illustrator 23.0.0, SVG Export Plug-In . SVG Version: 6.00 Build 0)  -->
<svg version="1.1" id="emergency-phone-15" xmlns="http://www.w3.org/2000/svg" xmlns:xlink="http://www.w3.org/1999/xlink" x="0px"
	 y="0px" width="15px" height="15px" viewBox="0 0 15 15" enable-background="new 0 0 15 15" xml:space="preserve">
<path fill="#2152A4" d="M7.9,11.5c0.2,0.2,0.5,0.2,0.7,0l0.7-0.7l2.2,2.2l-0.4,0.4c-0.4,0.4-0.9,0.7-1.4,0.7H8.2
	c-0.6,0-1.1-0.3-1.4-0.7L1.7,8.2C1.3,7.9,1.1,7.3,1,6.8V5.3c0.1-0.6,0.3-1.1,0.7-1.5l0.4-0.4l2.2,2.2L3.5,6.4
	c-0.2,0.2-0.2,0.5,0,0.7L7.9,11.5z M12.6,11.9c0.4-0.4,0.4-1,0-1.4l0,0l0,0l0,0l-0.7-0.7c-0.4-0.4-1-0.4-1.4,0l0,0l0,0l0,0
	L12.6,11.9z M5.3,4.6c0.4-0.4,0.4-1,0-1.4l0,0l0,0L4.6,2.5C4.2,2,3.6,2,3.2,2.4l0,0l0,0l0,0L5.3,4.6z M10,2v2H8v1h2v2h1V5h2V4h-2V2
	H10z"/>
</svg>
